<svg xmlns="http://www.w3.org/2000/svg" viewBox="0 0 101.05 99"><title>a</title><g id="efe65511-4edc-44be-b1fe-ec279e826be7" data-name="Layer 3"><path d="M44.88,2h4.45c0,.13.13.14.24.15a21.87,21.87,0,0,1,8.18,2.38A23.09,23.09,0,0,1,70.19,20.86a22.17,22.17,0,0,1,0,9.07A23.48,23.48,0,0,1,92.6,56.08a22.16,22.16,0,0,1-8.31,15.31c-8.64,6.81-17.89,7.15-27.56,1.78A93.27,93.27,0,0,0,72,94.78a1.24,1.24,0,0,1,.43.73c.08.77-.36,1.14-1.42,1.14H23.92c-.55,0-1.08,0-1.35-.6s.11-1,.48-1.39A103.21,103.21,0,0,0,37.18,75.73c.31-.53.59-1.07,1-1.8l-.68.38a21.29,21.29,0,0,1-15.33,2.51c-9.48-2-15.6-7.81-18.36-17.14A28.33,28.33,0,0,0,3,56.25V51.32c.3-.22.23-.58.27-.86A22.35,22.35,0,0,1,7.93,39.58a23.1,23.1,0,0,1,15.88-8.93c.54-.07.57-.23.47-.68a20.58,20.58,0,0,1,0-9.14c2.18-9.32,7.87-15.39,17.11-18.08C42.53,2.41,43.76,2.44,44.88,2Z"/></g></svg>