<svg id="3ced72cb-415b-4f5b-bdb9-015214da8227" data-name="Layer 1" xmlns="http://www.w3.org/2000/svg" viewBox="0 0 79.55 100"><title>a</title><path d="M40.38,100.72l-1.87-3.16C35.19,92,31.37,86.72,27.59,81.45,21.52,73,15.17,64.82,8.69,56.7c-1.52-1.91-3-3.85-4.45-5.82a.91.91,0,0,1,0-1.24c1.54-2.13,3.25-4.11,4.9-6.15a432.18,432.18,0,0,0,26.57-36,71.27,71.27,0,0,1,3.93-6c.9-1.11.91-1.12,1.69.05C45.68,8.17,50,14.74,54.67,21.11c7.17,9.8,14.55,19.44,22.49,28.64.33.38.3.58,0,1C68.82,60.36,61,70.44,53.63,80.84c-4.51,6.34-8.9,12.75-12.93,19.41Z" fill="#fe0000"/></svg>