<svg xmlns="http://www.w3.org/2000/svg" viewBox="0 0 118.57 100"><title>a</title><g id="1a40257f-a05d-45e4-a074-b0a383848473" data-name="Layer 2"><path d="M23.19,2.5Z" fill="#f34336"/><path d="M116.56,32.7c.2-9.19-3.68-18.59-10.74-24.47-14.95-12.48-37.83-7-46.48,10-5.63-10-15.25-17-27.11-17A30.72,30.72,0,0,0,7.57,14a30.29,30.29,0,0,0-5,22.08c1.78,11.86,10.61,19.06,18.57,27.1C30.75,72.84,40.3,82.53,50,92.08q4.65,4.58,9.35,9.1c.57-.08.84-.57,1.2-.92,9.59-9.6,38.2-38.72,43-43.65l7.13-7.41a16.43,16.43,0,0,0,3.53-5.89A29.19,29.19,0,0,0,116.56,32.7Z" fill="#f34336"/></g></svg>