<?xml version="1.0" encoding="utf-8"?>
<!-- Generator: Adobe Illustrator 22.0.1, SVG Export Plug-In . SVG Version: 6.00 Build 0)  -->
<svg version="1.1" id="Layer_1" xmlns="http://www.w3.org/2000/svg" xmlns:xlink="http://www.w3.org/1999/xlink" x="0px" y="0px"
	 viewBox="0 0 84.2 104.9" style="enable-background:new 0 0 84.2 104.9;" xml:space="preserve">
<style type="text/css">
	.st0{fill:#FEFEFE;}
</style>
<title>a</title>
<g id="_x33_4d783ea-8138-4d3f-a192-dd61be9dc815">
	<path class="st0" d="M43,64.6c0.8,1.3,1.7,2.5,2.5,3.8c1.9,2.9,4.3,5.4,7,7.5c1.9,1.6,4.2,2.7,6.6,3.2c2,0.3,4,0.4,6,0.4
		c2,0,3.9-0.5,5.7-1.4c4-1.9,7.3-5.1,9.2-9.2c0.8-1.9,1.2-4,1.2-6.1c0.2-2.8-0.1-5.6-0.8-8.3c-0.9-2.8-2.4-5.4-4.4-7.6
		c-3.4-4.2-7.3-8.1-11.1-12c-4.5-4.6-9.1-9.1-13.3-14c-2.5-2.8-4.7-6-6.3-9.4c-1.3-2.8-2.2-5.8-3.3-8.7c-0.1-0.2,0-0.4-0.3-0.6
		c-0.3,1-0.6,1.9-0.9,2.8c-1,3.8-2.6,7.5-4.7,10.9c-2.6,3.8-5.5,7.3-8.7,10.5C22.4,31.9,17,37,11.6,42.1c-2,1.8-3.9,3.9-5.4,6.1
		c-2.2,3.5-4.1,7-4.1,11.3c0,3.2,0,6.3,1.3,9.2c2.9,6,7.4,10,14.3,10.6c4.5,0.5,9-0.4,12.9-2.7c3-1.9,5.5-4.4,7.4-7.4
		c0.8-1.2,1.5-2.4,2.4-3.5c0.2-0.2,0.4-0.7,0.8-0.5s0.2,0.6,0.2,0.9c0,1.6-0.2,3.2-0.3,4.8c-0.3,3.8-1.1,7.5-2.5,11
		c-2.7,7.1-8.4,12.6-15.5,15.2c-3.4,1.2-6.9,1.9-10.5,2.3c-0.8,0.1-1.6,0.2-2.3,0.6c-0.5,0.2-0.8,0.7-0.6,1.3
		c0.1,0.5,0.5,0.6,0.9,0.7c0.3,0.1,0.6,0.1,0.9,0.1c3.3,0.3,6.7,0.3,10,0.3c11.8,0,23.6,0,35.4,0c4.7,0,9.4,0,14-0.2
		c0.8,0,1.7-0.1,2.5-0.3c0.4-0.1,0.7-0.4,0.7-0.9c0-0.8-0.3-1.1-1.3-1.4c-1.7-0.4-3.4-0.7-5.1-1c-5.2-0.8-10-2.8-14.2-5.8
		c-3.2-2.2-5.7-5.2-7.3-8.8c-1.4-3.6-2.4-7.4-2.9-11.2C42.8,69.9,42.8,67.2,43,64.6z"/>
	<path d="M43,64.6c-0.2,2.7-0.1,5.3,0.2,8c0.8,7.1,3.9,13.9,9.2,18.8c2.6,2.4,5.7,4.3,9.1,5.6c3.7,1.4,7.5,1.6,11.2,2.6
		c1.1,0.3,1.3,0.6,1.3,1.4c0,0.4-0.2,0.8-0.7,0.9c-0.8,0.2-1.6,0.3-2.5,0.3c-17.5,0.8-35,0-52.5,0.3c-1.3,0-8.2,0.7-8.7-1.2
		c-0.1-0.5,0.1-1.1,0.6-1.3c0.7-0.3,1.5-0.5,2.3-0.6c7.7-0.8,15.3-3.2,20.6-9.1c5.8-6.6,8.2-15.5,8.3-24.2c0-0.3,0.1-0.8-0.2-0.9
		c-0.9-0.4-3,3.3-3.4,3.9c-1.3,2-2.7,3.8-4.6,5.3c-4.7,3.8-11,5.9-17,4.7C6.9,77.3,2.1,68.5,2.1,59.5c0-6.5,4.2-11.7,8.5-16.1
		c6-6.2,12.7-11.8,18.5-18.2c6.2-6.9,9.9-14,12.7-22.7c2.5,6.6,5,13.2,9.8,18.6c7.9,8.8,17,16.8,24.4,26c2,2.2,3.4,4.8,4.4,7.6
		c2.2,6.6,0.9,13.9-3.9,19.1c-5.4,6-14.1,7.2-21.4,3.8C49.5,74.7,46.3,69.6,43,64.6z"/>
</g>
</svg>
