<?xml version="1.0" encoding="utf-8"?>
<!-- Generator: Adobe Illustrator 22.0.1, SVG Export Plug-In . SVG Version: 6.00 Build 0)  -->
<svg version="1.1" id="Isolation_Mode" xmlns="http://www.w3.org/2000/svg" xmlns:xlink="http://www.w3.org/1999/xlink" x="0px"
	 y="0px" viewBox="0 0 127.1 127.1" style="enable-background:new 0 0 127.1 127.1;" xml:space="preserve">
<style type="text/css">
	.st0{fill:#C80E2D;}
	.st1{fill:#F7FAF6;}
	.st2{fill:#E31A3C;}
	.st3{fill:#81FF9D;}
	.st4{fill:url(#SVGID_1_);}
	.st5{fill:#E2ECE6;}
	.st6{fill:#F8FAF8;}
	.st7{fill:url(#SVGID_2_);}
	.st8{fill:url(#SVGID_3_);}
	.st9{fill:url(#SVGID_4_);}
	.st10{fill:url(#SVGID_5_);}
	.st11{fill:url(#SVGID_6_);}
	.st12{fill:url(#SVGID_7_);}
	.st13{fill:url(#SVGID_8_);}
	.st14{fill:url(#SVGID_9_);}
	.st15{fill:url(#SVGID_10_);}
	.st16{fill:url(#SVGID_11_);}
	.st17{fill:url(#SVGID_12_);}
	.st18{fill:url(#SVGID_13_);}
	.st19{fill:url(#SVGID_14_);}
</style>
<g>
	<g>
		<path class="st0" d="M111.1,53.5c-0.7-3.2-1.6-6.2-2.9-9.1c-1.2-2.8-2.6-5.4-4.3-7.9c-1.8-2.7-3.8-5.1-6.1-7.4
			c-2.4-2.4-5-4.5-7.8-6.3c-2.7-1.7-5.5-3.2-8.5-4.4c-2.7-1.1-5.6-2-8.6-2.6c-0.7-0.1-1.4-0.3-2.1-0.4c-0.2,0-0.4-0.1-0.6-0.1
			c-0.5-0.1-1-0.1-1.5-0.2c-0.2,0-0.5-0.1-0.7-0.1c-0.6-0.1-1.3-0.1-1.9-0.1l-0.2,0c-0.8,0-1.6-0.1-2.4-0.1c-0.8,0-1.7,0-2.5,0.1h0
			h0h0l-0.2,0c-0.7,0-1.4,0.1-2.1,0.2c-0.2,0-0.5,0.1-0.7,0.1c-0.5,0.1-1.1,0.1-1.6,0.2c-0.2,0-0.5,0.1-0.7,0.1
			c-0.7,0.1-1.5,0.3-2.2,0.4c-3.2,0.7-6.2,1.6-9.1,2.9c-2.8,1.2-5.4,2.6-7.9,4.3c-2.7,1.8-5.1,3.8-7.4,6.1c-2.4,2.4-4.5,5-6.3,7.8
			c-1.7,2.7-3.2,5.5-4.4,8.5c-1.1,2.7-2,5.6-2.6,8.6c-0.6,3.1-0.9,6.2-0.9,9.5c0,3.4,0.4,6.8,1,10c0.7,3.2,1.6,6.2,2.9,9.1
			c1.2,2.8,2.6,5.4,4.3,7.9c1.8,2.7,3.8,5.1,6.1,7.4c2.4,2.4,5,4.5,7.8,6.3c2.7,1.7,5.5,3.2,8.5,4.4c2.7,1.1,5.6,2,8.6,2.6
			c0.7,0.1,1.4,0.3,2.1,0.4c0.2,0,0.4,0.1,0.6,0.1c0.5,0.1,1,0.1,1.5,0.2c0.2,0,0.5,0.1,0.7,0.1c0.6,0.1,1.3,0.1,1.9,0.1
			c0.9,0,1.7,0.1,2.6,0.1c3.4,0,6.8-0.4,10-1c3.2-0.7,6.2-1.6,9.1-2.9c2.8-1.2,5.4-2.6,7.9-4.3c2.7-1.8,5.1-3.8,7.4-6.1
			c2.4-2.4,4.5-5,6.3-7.8c1.7-2.7,3.2-5.5,4.4-8.5c1.1-2.7,2-5.6,2.6-8.6c0.6-3.1,0.9-6.2,0.9-9.5C112.1,60.1,111.8,56.7,111.1,53.5
			z M71.6,15.6c-0.1,0-0.3-0.1-0.4-0.1C71.3,15.6,71.4,15.6,71.6,15.6z M70,15.4c-0.4,0-0.7-0.1-1.1-0.1
			C69.3,15.3,69.6,15.3,70,15.4z M68,15.1c-0.6-0.1-1.2-0.1-1.8-0.1C66.8,15,67.4,15.1,68,15.1z M60.8,15c-0.7,0-1.3,0.1-2,0.2
			C59.5,15.1,60.1,15.1,60.8,15z M57.8,15.3c-0.4,0-0.8,0.1-1.2,0.2C57.1,15.4,57.5,15.3,57.8,15.3z M55.5,15.6
			c-0.2,0-0.3,0.1-0.4,0.1C55.2,15.7,55.4,15.6,55.5,15.6z M55.5,111.4c0.1,0,0.3,0.1,0.4,0.1C55.8,111.5,55.6,111.5,55.5,111.4z
			 M57,111.7c0.4,0,0.7,0.1,1.1,0.1C57.8,111.8,57.4,111.7,57,111.7z M59,111.9c0.6,0.1,1.2,0.1,1.8,0.1C60.3,112,59.7,112,59,111.9
			z"/>
		<path class="st1" d="M16.3,83.7c-1.3-3.1-2.3-6.3-3-9.6c-0.3-1.4-0.5-2.8-0.7-4.2L0.5,71.4c0.2,1.8,0.5,3.5,0.9,5.2
			c0.9,4.1,2.1,8.1,3.8,11.9c0.3,0.7,0.6,1.4,0.9,2.1l11-5.2C16.8,84.8,16.6,84.3,16.3,83.7z"/>
		<path class="st1" d="M116.7,98.4l-10.2-6.7c-1.9,2.9-4.2,5.7-6.6,8.2c-1.3,1.3-2.8,2.6-4.2,3.8l7.6,9.5c1.8-1.5,3.6-3,5.2-4.7
			C111.5,105.4,114.3,102,116.7,98.4z"/>
		<path class="st1" d="M44.4,111.2c-2.3-0.9-4.6-2-6.8-3.3l-6.1,10.5c2.7,1.6,5.5,2.9,8.4,4.1c3.3,1.3,6.7,2.4,10.3,3.1l2.6-11.9
			C49.9,113.1,47.1,112.2,44.4,111.2z"/>
		<path class="st1" d="M110.7,43.3c1.3,3.1,2.3,6.3,3,9.6c0.3,1.4,0.5,2.8,0.7,4.2l12.1-1.5c-0.2-1.8-0.5-3.5-0.9-5.2
			c-0.9-4.1-2.1-8.1-3.8-11.9c-0.3-0.7-0.6-1.4-1-2.1l-11,5.2C110.2,42.2,110.5,42.8,110.7,43.3z"/>
		<path class="st1" d="M82.6,15.9c2.3,0.9,4.6,2,6.7,3.3l6.1-10.5c-2.7-1.6-5.5-2.9-8.4-4.1c-3.3-1.3-6.7-2.4-10.3-3.1l-2.6,11.9
			C77.2,14,80,14.8,82.6,15.9z"/>
		<path class="st2" d="M126.6,55.6l-12.1,1.5v0c-0.2-1.4-0.4-2.8-0.7-4.2c-0.7-3.3-1.7-6.6-3-9.6c-0.2-0.6-0.5-1.1-0.8-1.7l0,0
			l11-5.2c-1.3-2.8-2.9-5.6-4.6-8.2c-2.3-3.5-5-6.7-7.9-9.6c-3.1-3.1-6.5-5.9-10.2-8.3c-0.9-0.6-1.8-1.1-2.7-1.7l-6.1,10.5l0,0
			c-2.2-1.3-4.4-2.4-6.8-3.3c-2.7-1.1-5.4-1.9-8.3-2.5l2.6-11.9c-0.3-0.1-0.6-0.1-0.9-0.2C71.9,0.4,67.8,0,63.5,0
			C59,0,54.7,0.5,50.4,1.4c-4.1,0.9-8.1,2.1-11.9,3.8c-3.6,1.5-7,3.4-10.3,5.6c-1.5,1-3,2.1-4.4,3.2l7.6,9.5
			c-1.5,1.2-2.9,2.4-4.2,3.8c-2.5,2.5-4.8,5.3-6.7,8.3l0.1-0.1l-10.2-6.7l-0.1,0.1C8,32.3,6.1,36,4.5,39.9C3.1,43.5,2,47.2,1.2,51.1
			C0.4,55.1,0,59.3,0,63.5c0,2.7,0.2,5.3,0.5,7.9l12.1-1.5l0,0c0.2,1.4,0.4,2.8,0.7,4.2c0.7,3.3,1.7,6.6,3,9.6
			c0.2,0.6,0.5,1.1,0.8,1.7l-11,5.2c1.3,2.8,2.9,5.6,4.6,8.2c2.3,3.5,5,6.7,7.9,9.6c3.1,3.1,6.5,5.9,10.2,8.3
			c0.9,0.6,1.8,1.1,2.7,1.7l6.1-10.5v0c2.2,1.3,4.4,2.4,6.8,3.3c2.9,1.2,5.9,2.1,9.1,2.7c-0.3-0.1-0.5-0.1-0.8-0.2l-2.6,11.9
			c0.3,0.1,0.6,0.1,0.9,0.2c4,0.8,8.2,1.2,12.4,1.2c4.5,0,8.9-0.5,13.1-1.4c4.1-0.9,8.1-2.1,11.9-3.8c3.6-1.5,7-3.4,10.3-5.6
			c1.5-1,3-2.1,4.4-3.2l-7.6-9.5c1.5-1.2,2.9-2.4,4.2-3.8c2.5-2.5,4.7-5.2,6.6-8.2l10.2,6.7l0.1-0.1c2.3-3.5,4.2-7.2,5.8-11.1
			c1.4-3.6,2.6-7.3,3.3-11.2c0.8-4,1.2-8.2,1.2-12.4C127.1,60.8,126.9,58.2,126.6,55.6z M109.3,40.2c-0.1-0.2-0.2-0.4-0.3-0.5
			C109.1,39.9,109.2,40.1,109.3,40.2z M107.3,36.8c-0.4-0.6-0.7-1.2-1.1-1.8C106.6,35.6,107,36.2,107.3,36.8z M108.4,38.5
			c-0.2-0.3-0.3-0.6-0.5-0.9C108,38,108.2,38.2,108.4,38.5z M35,20.8c-0.6,0.4-1.2,0.8-1.8,1.3C33.8,21.7,34.4,21.3,35,20.8z
			 M12.4,68.2l0,0.2L12.4,68.2z M12.2,65c0,0.1,0,0.2,0,0.4C12.2,65.3,12.2,65.2,12.2,65z M12.3,66.6c0,0.1,0,0.2,0,0.4
			C12.3,66.8,12.3,66.7,12.3,66.6z M17.8,86.8c0.1,0.2,0.2,0.4,0.3,0.5C18,87.2,17.9,87,17.8,86.8z M19.7,90.2
			c0.4,0.6,0.7,1.2,1.1,1.8C20.4,91.4,20.1,90.8,19.7,90.2z M18.7,88.5c0.2,0.3,0.3,0.6,0.5,0.9C19,89.1,18.9,88.8,18.7,88.5z
			 M92,106.2c0.6-0.4,1.2-0.8,1.8-1.3C93.3,105.4,92.6,105.8,92,106.2z M100.9,87.9c-1.7,2.6-3.6,5-5.8,7.2
			c-2.1,2.1-4.3,3.9-6.8,5.6c-2.3,1.5-4.7,2.8-7.2,3.9c-2.7,1.1-5.5,2-8.4,2.6c-3,0.6-6,1-9.2,1c-3,0-5.9-0.3-8.7-0.9
			c-2.7-0.5-5.3-1.3-7.9-2.3c-2.7-1.1-5.3-2.5-7.8-4.1c-2.6-1.7-5-3.6-7.2-5.8c-2.1-2.1-3.9-4.3-5.6-6.8c-1.5-2.3-2.8-4.7-3.9-7.2
			c-1.1-2.7-2-5.5-2.6-8.4c-0.6-3-1-6-1-9.2c0-3,0.3-5.9,0.9-8.7c0.5-2.7,1.3-5.3,2.3-7.9c1.1-2.7,2.5-5.3,4.1-7.8
			c1.7-2.6,3.6-5,5.8-7.2c2.1-2.1,4.3-3.9,6.8-5.6c2.3-1.5,4.7-2.8,7.2-3.9c2.7-1.1,5.5-2,8.4-2.6c3-0.6,6-1,9.2-1
			c3,0,5.9,0.3,8.7,0.9c2.7,0.5,5.3,1.3,7.9,2.3c2.7,1.1,5.3,2.5,7.8,4.1c2.6,1.7,5,3.6,7.2,5.8c2.1,2.1,3.9,4.3,5.6,6.8
			c1.5,2.3,2.8,4.7,3.9,7.2c1.1,2.7,2,5.5,2.6,8.4c0.6,3,1,6,1,9.2c0,3-0.3,5.9-0.9,8.7c-0.5,2.7-1.3,5.3-2.3,7.9
			C103.8,82.8,102.5,85.4,100.9,87.9z M114.6,58.6l0,0.2L114.6,58.6z M114.7,60.1c0,0.1,0,0.2,0,0.3
			C114.7,60.3,114.7,60.2,114.7,60.1z M114.8,61.6c0,0.1,0,0.2,0,0.4C114.8,61.9,114.8,61.8,114.8,61.6z"/>
		<path class="st1" d="M27.2,27.2c1.3-1.3,2.8-2.6,4.2-3.8l-7.6-9.5c-1.8,1.5-3.6,3-5.2,4.7c-3.1,3.1-5.8,6.5-8.2,10.1l10.2,6.7
			C22.5,32.4,24.8,29.7,27.2,27.2z"/>
		<path class="st3" d="M103.7,55.1c-0.6-2.7-1.4-5.2-2.4-7.7c-1-2.3-2.2-4.5-3.6-6.6c-1.5-2.2-3.2-4.3-5.1-6.2c-2-2-4.2-3.8-6.6-5.3
			c-2.2-1.5-4.6-2.7-7.1-3.7c-2.3-0.9-4.7-1.7-7.2-2.2c-2.6-0.5-5.3-0.8-8-0.8c-2.9,0-5.7,0.3-8.5,0.9c-2.7,0.6-5.2,1.4-7.7,2.4
			c-2.3,1-4.5,2.2-6.6,3.6c-2.2,1.5-4.3,3.2-6.2,5.1c-2,2-3.8,4.2-5.3,6.6c-1.5,2.2-2.7,4.6-3.7,7.1c-0.9,2.3-1.7,4.7-2.2,7.2
			c-0.5,2.6-0.8,5.3-0.8,8c0,2.9,0.3,5.7,0.9,8.5c0.6,2.7,1.4,5.2,2.4,7.7c1,2.3,2.2,4.5,3.6,6.6c1.5,2.2,3.2,4.3,5.1,6.2
			c2,2,4.2,3.8,6.6,5.3c2.2,1.5,4.6,2.7,7.1,3.7c2.3,0.9,4.7,1.7,7.2,2.2c2,0.4,4,0.6,6,0.7c-2-0.1-4-0.3-5.9-0.7
			c-2.5-0.5-4.9-1.2-7.1-2.1c-2.5-1-4.8-2.2-7.1-3.7c-2.4-1.5-4.5-3.3-6.5-5.3c-1.9-1.9-3.6-3.9-5.1-6.2c-1.4-2.1-2.6-4.2-3.6-6.5
			c-1-2.4-1.8-5-2.4-7.6C23.3,69.7,23,66.9,23,64c0-2.7,0.3-5.4,0.8-7.9c0.5-2.5,1.2-4.9,2.1-7.1c1-2.5,2.2-4.8,3.7-7.1
			c1.5-2.4,3.3-4.5,5.3-6.5c1.9-1.9,3.9-3.6,6.2-5c2.1-1.4,4.2-2.6,6.5-3.6c2.4-1,5-1.8,7.6-2.4c2.7-0.6,5.5-0.9,8.4-0.9
			c2.7,0,5.4,0.3,7.9,0.8c2.5,0.5,4.9,1.2,7.1,2.1c2.5,1,4.8,2.2,7.1,3.7c2.4,1.5,4.5,3.3,6.5,5.3c1.9,1.9,3.6,3.9,5,6.2
			c1.4,2.1,2.6,4.2,3.6,6.5c1,2.4,1.8,5,2.4,7.6c0.6,2.7,0.9,5.5,0.9,8.4c0,2.7-0.3,5.4-0.8,7.9c-0.5,2.5-1.2,4.9-2.1,7.1
			c-1,2.5-2.2,4.8-3.7,7.1c-1.5,2.4-3.3,4.5-5.3,6.5c-1.9,1.9-3.9,3.6-6.2,5c-2.1,1.4-4.2,2.6-6.5,3.6c-2.4,1-5,1.8-7.6,2.4
			c-2.7,0.6-5.5,0.9-8.4,0.9c2.9,0,5.7-0.3,8.5-0.9c2.7-0.6,5.2-1.4,7.7-2.4c2.3-1,4.5-2.2,6.6-3.6c2.2-1.5,4.3-3.2,6.2-5.1
			c2-2,3.8-4.2,5.3-6.6c1.5-2.2,2.7-4.6,3.7-7.1c0.9-2.3,1.7-4.7,2.2-7.2c0.5-2.6,0.8-5.3,0.8-8C104.5,60.6,104.2,57.8,103.7,55.1z"
			/>
		
			<linearGradient id="SVGID_1_" gradientUnits="userSpaceOnUse" x1="-432.8992" y1="158.1775" x2="-431.8992" y2="158.1775" gradientTransform="matrix(-64.2086 -64.2086 -64.2086 64.2086 -17543.7734 -37856.4805)">
			<stop  offset="0" style="stop-color:#FC005C"/>
			<stop  offset="0.3338" style="stop-color:#EE0450"/>
			<stop  offset="0.9578" style="stop-color:#CB0D2F"/>
			<stop  offset="1" style="stop-color:#C80E2D"/>
		</linearGradient>
		<path class="st4" d="M25.5,38.7c-1.6,2.5-3,5.2-4.1,7.9c-1,2.6-1.8,5.3-2.4,8c-0.6,2.9-0.9,5.9-0.9,8.9c0,3.1,0.3,6.3,1,9.4
			c0.6,2.9,1.5,5.7,2.7,8.5c1.1,2.5,2.4,5,4,7.3c1.6,2.4,3.5,4.8,5.7,6.9c2.3,2.3,4.7,4.2,7.3,5.9c2.5,1.6,5.2,3,7.9,4.1
			c2.6,1,5.3,1.8,8,2.4c2.9,0.6,5.9,0.9,8.9,0.9c3.1,0,6.3-0.3,9.4-1c2.9-0.6,5.8-1.5,8.5-2.7c2.5-1.1,5-2.4,7.3-4
			c2.4-1.6,4.8-3.5,6.9-5.7c2.3-2.3,4.2-4.7,5.9-7.3c1.6-2.5,3-5.2,4.1-7.9c1-2.6,1.8-5.3,2.4-8c0.6-2.9,0.9-5.9,0.9-8.9
			c0-3.1-0.3-6.3-1-9.4c-0.6-2.9-1.5-5.7-2.7-8.5c-1.1-2.5-2.4-5-4-7.3c-1.6-2.4-3.5-4.7-5.7-6.9c-2.3-2.3-4.7-4.2-7.3-5.9
			c-2.5-1.6-5.2-3-7.9-4.1c-2.6-1-5.3-1.8-8-2.4c-2.9-0.6-5.9-0.9-8.9-0.9c-3.1,0-6.3,0.3-9.4,1c-2.9,0.6-5.7,1.5-8.5,2.7
			c-2.5,1.1-5,2.4-7.3,4c-2.4,1.6-4.7,3.5-6.9,5.7C29.2,33.7,27.2,36.1,25.5,38.7z M47.1,25.2c2.5-1.1,5.2-1.9,7.8-2.5
			c2.8-0.6,5.7-0.9,8.6-0.9c2.7,0,5.5,0.3,8.2,0.8c2.5,0.5,5,1.2,7.4,2.2c2.5,1,5,2.3,7.3,3.8c2.4,1.6,4.6,3.4,6.7,5.4
			c2,2,3.7,4.1,5.2,6.3c1.4,2.2,2.7,4.4,3.6,6.8c1.1,2.5,1.9,5.2,2.5,7.8c0.6,2.8,0.9,5.7,0.9,8.6c0,2.7-0.3,5.5-0.8,8.2
			c-0.5,2.5-1.2,5-2.2,7.4c-1,2.5-2.3,5-3.8,7.3C96.9,88.7,95.1,91,93,93c-2,2-4.1,3.7-6.3,5.2c-2.2,1.4-4.4,2.7-6.8,3.6
			c-2.5,1.1-5.2,1.9-7.8,2.5c-2.8,0.6-5.7,0.9-8.6,0.9c-2.7,0-5.5-0.3-8.2-0.8c-2.5-0.5-5-1.2-7.4-2.2c-2.5-1-5-2.3-7.3-3.8
			c-2.4-1.6-4.6-3.4-6.7-5.4c-2-2-3.7-4.1-5.2-6.3c-1.4-2.2-2.7-4.4-3.6-6.8c-1.1-2.5-1.9-5.2-2.5-7.8c-0.6-2.8-0.9-5.7-0.9-8.6
			c0-2.7,0.3-5.5,0.8-8.2c0.5-2.5,1.2-5,2.2-7.4c1-2.5,2.3-5,3.8-7.3c1.6-2.4,3.4-4.6,5.4-6.7c2-2,4.1-3.7,6.3-5.2
			C42.5,27.4,44.8,26.2,47.1,25.2z"/>
		<path class="st0" d="M97.6,40.8l3-2c-1.6-2.4-3.5-4.7-5.6-6.8l-2.5,2.5C94.4,36.4,96.1,38.5,97.6,40.8z"/>
		<path class="st5" d="M101.2,47.4l3.3-1.4c-1.1-2.5-2.4-4.9-3.9-7.2l-3,2C99,42.8,100.2,45.1,101.2,47.4z"/>
		<path class="st0" d="M103.7,55.1l3.5-0.7c-0.6-2.9-1.5-5.7-2.6-8.4l-3.3,1.4C102.3,49.8,103.1,52.4,103.7,55.1z"/>
		<path class="st5" d="M92.5,92.5l2.5,2.5c2.2-2.2,4.1-4.6,5.8-7.2l-3-2C96.3,88.3,94.5,90.5,92.5,92.5z"/>
		<path class="st5" d="M25.5,48.3l-3.3-1.3c-1,2.5-1.8,5.1-2.3,7.9l3.5,0.7C23.8,53,24.5,50.6,25.5,48.3z"/>
		<path class="st0" d="M23.4,72l-3.5,0.7c0.6,2.9,1.5,5.7,2.6,8.4l3.3-1.4C24.8,77.2,24,74.6,23.4,72z"/>
		<path class="st0" d="M23.3,55.5l-3.5-0.7c-0.6,2.8-0.9,5.7-0.9,8.7h3.6C22.5,60.8,22.8,58.1,23.3,55.5z"/>
		<path class="st5" d="M22.5,63.5h-3.6c0,3.2,0.3,6.2,1,9.2l3.5-0.7C22.8,69.2,22.5,66.4,22.5,63.5z"/>
		<path class="st5" d="M25.8,79.7l-3.3,1.4c1.1,2.5,2.4,4.9,3.9,7.2l3-2C28,84.2,26.8,82,25.8,79.7z"/>
		<path class="st5" d="M34.5,92.5L32,95.1c2.2,2.2,4.6,4.1,7.2,5.8l2-3C38.8,96.3,36.5,94.5,34.5,92.5z"/>
		<path class="st0" d="M29.4,86.3l-3,2c1.6,2.4,3.5,4.7,5.6,6.8l2.5-2.5C32.6,90.6,30.9,88.5,29.4,86.3z"/>
		<path class="st0" d="M41.1,97.9l-2,3c2.4,1.6,5,3,7.8,4.1l1.3-3.3C45.8,100.6,43.4,99.3,41.1,97.9z"/>
		<path class="st0" d="M29.2,41.1l-3-2c-1.6,2.4-3,5-4.1,7.8l3.3,1.3C26.5,45.8,27.7,43.4,29.2,41.1z"/>
		<path class="st5" d="M63.5,22.5v-3.6c-3.2,0-6.2,0.3-9.2,1l0.7,3.5C57.8,22.8,60.6,22.5,63.5,22.5z"/>
		<path class="st5" d="M47.4,25.8L46,22.5c-2.5,1.1-4.9,2.4-7.2,3.9l2,3C42.8,28,45.1,26.8,47.4,25.8z"/>
		<path class="st0" d="M55.1,23.4l-0.7-3.5c-2.9,0.6-5.7,1.5-8.4,2.6l1.4,3.3C49.8,24.8,52.4,24,55.1,23.4z"/>
		<path class="st5" d="M34.5,34.5L32,32c-2.2,2.2-4.1,4.6-5.8,7.2l3,2C30.7,38.8,32.5,36.5,34.5,34.5z"/>
		<path class="st0" d="M40.8,29.4l-2-3c-2.4,1.6-4.7,3.5-6.8,5.6l2.5,2.5C36.4,32.6,38.5,30.9,40.8,29.4z"/>
		<path class="st5" d="M103.7,55.1c0.6,2.7,0.9,5.6,0.9,8.5h3.6c0-3.2-0.3-6.2-1-9.2L103.7,55.1z"/>
		<path class="st0" d="M103.7,71.5l3.5,0.7c0.6-2.8,0.9-5.7,0.9-8.7h-3.6C104.5,66.3,104.3,68.9,103.7,71.5z"/>
		<path class="st5" d="M92.5,34.5l2.5-2.5c-2.2-2.2-4.6-4.1-7.2-5.8l-2,3C88.3,30.7,90.5,32.5,92.5,34.5z"/>
		<path class="st5" d="M101.6,78.8l3.3,1.3c1-2.5,1.8-5.1,2.3-7.9l-3.5-0.7C103.2,74,102.5,76.5,101.6,78.8z"/>
		<path class="st5" d="M48.3,101.6l-1.3,3.3c2.5,1,5.1,1.8,7.9,2.3l0.7-3.5C53,103.2,50.6,102.5,48.3,101.6z"/>
		<path class="st0" d="M85.9,29.2l2-3c-2.4-1.6-5-3-7.8-4.1l-1.3,3.3C81.3,26.5,83.7,27.7,85.9,29.2z"/>
		<path class="st5" d="M78.8,25.5l1.3-3.3c-2.5-1-5.1-1.8-7.9-2.3l-0.7,3.5C74,23.8,76.5,24.5,78.8,25.5z"/>
		<path class="st0" d="M97.9,85.9l3,2c1.6-2.4,3-5,4.1-7.8l-3.3-1.3C100.6,81.3,99.3,83.7,97.9,85.9z"/>
		<path class="st5" d="M63.5,104.5v3.6c3.2,0,6.2-0.3,9.2-1l-0.7-3.5C69.2,104.2,66.4,104.5,63.5,104.5z"/>
		<path class="st0" d="M71.5,23.3l0.7-3.5c-2.8-0.6-5.7-0.9-8.7-0.9v3.6C66.3,22.5,68.9,22.8,71.5,23.3z"/>
		<path class="st0" d="M55.5,103.7l-0.7,3.5c2.8,0.6,5.7,0.9,8.7,0.9v-3.6C60.8,104.5,58.1,104.3,55.5,103.7z"/>
		<path class="st0" d="M72,103.7l0.7,3.5c2.9-0.6,5.7-1.5,8.4-2.6l-1.4-3.3C77.2,102.3,74.6,103.1,72,103.7z"/>
		<path class="st5" d="M79.7,101.2l1.4,3.3c2.5-1.1,4.9-2.4,7.2-3.9l-2-3C84.2,99,82,100.2,79.7,101.2z"/>
		<path class="st0" d="M86.3,97.6l2,3c2.4-1.6,4.7-3.5,6.8-5.6l-2.5-2.5C90.6,94.4,88.5,96.1,86.3,97.6z"/>
		<path class="st0" d="M12.8,71.6c0,0.1,0,0.3,0.1,0.4C12.9,71.9,12.9,71.7,12.8,71.6z"/>
		<path class="st0" d="M99.8,99.8c2.5-2.5,4.7-5.2,6.6-8.2C104.5,94.6,102.3,97.3,99.8,99.8z"/>
		<path class="st0" d="M48.5,112.6c1.4,0.4,2.8,0.8,4.2,1.1C51.3,113.4,49.9,113,48.5,112.6z"/>
		<path class="st0" d="M46.5,111.9c0.6,0.2,1.1,0.4,1.7,0.5C47.6,112.3,47.1,112.1,46.5,111.9z"/>
		<path class="st0" d="M114.1,55l0,0.2L114.1,55z"/>
		<path class="st6" d="M23.7,31.1c-1.1,1.4-2.1,2.8-3.1,4.2C21.6,33.9,22.6,32.5,23.7,31.1z"/>
		<path class="st6" d="M25.4,29.1c-0.5,0.6-1.1,1.2-1.6,1.8C24.4,30.4,24.9,29.7,25.4,29.1z"/>
		
			<linearGradient id="SVGID_2_" gradientUnits="userSpaceOnUse" x1="-353.2794" y1="124.8743" x2="-352.2808" y2="124.8743" gradientTransform="matrix(3.7452 -1.1097 -1.1097 -3.7452 1462.3639 157.4313)">
			<stop  offset="0" style="stop-color:#A9A5A6"/>
			<stop  offset="0.2641" style="stop-color:#C9C6C7"/>
			<stop  offset="0.566" style="stop-color:#E6E5E5"/>
			<stop  offset="0.8221" style="stop-color:#F8F8F8"/>
			<stop  offset="1" style="stop-color:#FFFFFF"/>
		</linearGradient>
		<path class="st7" d="M6.9,90.2c-0.3-0.7-0.6-1.4-0.9-2.1c-1.6-3.7-2.8-7.7-3.7-11.7c-0.4-1.7-0.6-3.4-0.8-5.1l-0.9,0.1
			c0.2,1.8,0.5,3.5,0.9,5.2c0.9,4.1,2.1,8.1,3.8,11.9c0.3,0.7,0.6,1.4,0.9,2.1L6.9,90.2z"/>
		
			<linearGradient id="SVGID_3_" gradientUnits="userSpaceOnUse" x1="-464.7028" y1="134.4407" x2="-463.7032" y2="134.4407" gradientTransform="matrix(-5.3902 -5.3902 -5.3902 5.3902 -1666.8712 -3120.3896)">
			<stop  offset="0" style="stop-color:#A9A5A6"/>
			<stop  offset="0.2641" style="stop-color:#C9C6C7"/>
			<stop  offset="0.566" style="stop-color:#E6E5E5"/>
			<stop  offset="0.8221" style="stop-color:#F8F8F8"/>
			<stop  offset="1" style="stop-color:#FFFFFF"/>
		</linearGradient>
		<path class="st8" d="M107.8,107.8c-1.6,1.6-3.4,3.2-5.2,4.6l0.6,0.7c1.8-1.5,3.6-3,5.2-4.7c3.1-3.1,5.8-6.5,8.2-10.1l-0.8-0.5
			C113.5,101.4,110.8,104.8,107.8,107.8z"/>
		
			<linearGradient id="SVGID_4_" gradientUnits="userSpaceOnUse" x1="-411.4643" y1="79.243" x2="-410.4648" y2="79.243" gradientTransform="matrix(1.4311 -3.7061 -3.7061 -1.4311 922.5424 -1287.319)">
			<stop  offset="0" style="stop-color:#A9A5A6"/>
			<stop  offset="0.2641" style="stop-color:#C9C6C7"/>
			<stop  offset="0.566" style="stop-color:#E6E5E5"/>
			<stop  offset="0.8221" style="stop-color:#F8F8F8"/>
			<stop  offset="1" style="stop-color:#FFFFFF"/>
		</linearGradient>
		<path class="st9" d="M40.2,121.7c-2.9-1.1-5.6-2.5-8.2-4l-0.5,0.8c2.7,1.6,5.5,2.9,8.4,4.1c3.3,1.3,6.7,2.4,10.3,3.1l0.2-0.9
			C46.9,124,43.5,123,40.2,121.7z"/>
		
			<linearGradient id="SVGID_5_" gradientUnits="userSpaceOnUse" x1="-474.3688" y1="177.5712" x2="-473.3676" y2="177.5712" gradientTransform="matrix(-6.7547 1.559 1.559 6.7547 -3353.2881 -414.7869)">
			<stop  offset="0" style="stop-color:#A9A5A6"/>
			<stop  offset="0.2641" style="stop-color:#C9C6C7"/>
			<stop  offset="0.566" style="stop-color:#E6E5E5"/>
			<stop  offset="0.8221" style="stop-color:#F8F8F8"/>
			<stop  offset="1" style="stop-color:#FFFFFF"/>
		</linearGradient>
		<path class="st10" d="M121.1,38.9c1.6,3.7,2.8,7.7,3.7,11.7c0.4,1.7,0.6,3.4,0.8,5.1l0.9-0.1c-0.2-1.8-0.5-3.5-0.9-5.2
			c-0.9-4.1-2.1-8.1-3.8-11.9c-0.3-0.7-0.6-1.4-1-2.1l-0.8,0.4C120.5,37.5,120.8,38.2,121.1,38.9z"/>
		
			<linearGradient id="SVGID_6_" gradientUnits="userSpaceOnUse" x1="-441.7471" y1="206.7703" x2="-440.7486" y2="206.7703" gradientTransform="matrix(-2.6351 6.3796 6.3796 2.6351 -2394.9331 2273.4224)">
			<stop  offset="0" style="stop-color:#A9A5A6"/>
			<stop  offset="0.2641" style="stop-color:#C9C6C7"/>
			<stop  offset="0.566" style="stop-color:#E6E5E5"/>
			<stop  offset="0.8221" style="stop-color:#F8F8F8"/>
			<stop  offset="1" style="stop-color:#FFFFFF"/>
		</linearGradient>
		<path class="st11" d="M86.8,5.4c2.9,1.1,5.6,2.5,8.2,4l0.5-0.8c-2.7-1.6-5.5-2.9-8.4-4.1c-3.3-1.3-6.7-2.4-10.3-3.1l-0.2,0.9
			C80.2,3.1,83.6,4.1,86.8,5.4z"/>
		
			<linearGradient id="SVGID_7_" gradientUnits="userSpaceOnUse" x1="-477.8635" y1="151.1094" x2="-476.8637" y2="151.1094" gradientTransform="matrix(-6.3948 -2.2152 -2.2152 6.3948 -2720.7419 -1976.5747)">
			<stop  offset="0" style="stop-color:#FB0065"/>
			<stop  offset="0.5037" style="stop-color:#F90063"/>
			<stop  offset="0.6861" style="stop-color:#F3025C"/>
			<stop  offset="0.8164" style="stop-color:#E80550"/>
			<stop  offset="0.921" style="stop-color:#D90940"/>
			<stop  offset="1" style="stop-color:#C80E2D"/>
		</linearGradient>
		<path class="st12" d="M1.4,71.3c-0.3-2.6-0.5-5.2-0.5-7.8c0-4.2,0.4-8.3,1.2-12.2c0.8-3.8,1.9-7.5,3.3-11
			c1.5-3.8,3.4-7.5,5.7-10.9l0.1-0.1l-0.8-0.5l-0.1,0.1C8,32.3,6.1,36,4.5,39.9C3.1,43.5,2,47.2,1.2,51.1C0.4,55.1,0,59.3,0,63.5
			c0,2.7,0.2,5.3,0.5,7.9L1.4,71.3z"/>
		
			<linearGradient id="SVGID_8_" gradientUnits="userSpaceOnUse" x1="-460.5074" y1="199.1974" x2="-459.507" y2="199.1974" gradientTransform="matrix(-4.8493 4.6142 4.6142 4.8493 -3133.146 1263.1074)">
			<stop  offset="0" style="stop-color:#F30058"/>
			<stop  offset="0.2996" style="stop-color:#EB0350"/>
			<stop  offset="0.7561" style="stop-color:#D6093B"/>
			<stop  offset="1" style="stop-color:#C80E2D"/>
		</linearGradient>
		<path class="st13" d="M32,117.6c-0.9-0.5-1.8-1.1-2.7-1.7c-3.6-2.4-7-5.1-10.1-8.2c-2.9-2.9-5.5-6.1-7.8-9.5
			c-1.7-2.6-3.2-5.3-4.6-8.1l-0.8,0.4c1.3,2.8,2.9,5.6,4.6,8.2c2.3,3.5,5,6.7,7.9,9.6c3.1,3.1,6.5,5.9,10.2,8.3
			c0.9,0.6,1.8,1.1,2.7,1.7L32,117.6z"/>
		
			<linearGradient id="SVGID_9_" gradientUnits="userSpaceOnUse" x1="-420.1219" y1="184.2587" x2="-419.1222" y2="184.2587" gradientTransform="matrix(3.1438 12.3895 12.3895 -3.1438 -886.1997 5900.6255)">
			<stop  offset="0" style="stop-color:#CF0237"/>
			<stop  offset="2.008885e-02" style="stop-color:#CD0337"/>
			<stop  offset="0.2891" style="stop-color:#BD0B32"/>
			<stop  offset="0.5923" style="stop-color:#B4102F"/>
			<stop  offset="1" style="stop-color:#B1122E"/>
		</linearGradient>
		<path class="st14" d="M102.6,112.4c-1.4,1.1-2.8,2.2-4.3,3.2c-3.2,2.1-6.6,4-10.1,5.5c-3.7,1.6-7.7,2.8-11.7,3.7
			c-4.2,0.9-8.5,1.3-12.9,1.3c-4.2,0-8.3-0.4-12.2-1.2c-0.3-0.1-0.6-0.1-0.9-0.2l-0.2,0.9c0.3,0.1,0.6,0.1,0.9,0.2
			c4,0.8,8.2,1.2,12.4,1.2c4.5,0,8.9-0.5,13.1-1.4c4.1-0.9,8.1-2.1,11.9-3.8c3.6-1.5,7-3.4,10.3-5.6c1.5-1,3-2.1,4.4-3.2
			L102.6,112.4z"/>
		
			<linearGradient id="SVGID_10_" gradientUnits="userSpaceOnUse" x1="-418.2111" y1="173.6878" x2="-417.2113" y2="173.6878" gradientTransform="matrix(10.1714 15.5348 15.5348 -10.1714 1668.6721 8327.7822)">
			<stop  offset="0" style="stop-color:#FC1054"/>
			<stop  offset="0.5129" style="stop-color:#FA1053"/>
			<stop  offset="0.6976" style="stop-color:#F3104E"/>
			<stop  offset="0.8293" style="stop-color:#E80F45"/>
			<stop  offset="0.935" style="stop-color:#D70F38"/>
			<stop  offset="1" style="stop-color:#C80E2D"/>
		</linearGradient>
		<path class="st15" d="M126.6,55.6l-0.9,0.1l0,0c0.3,2.6,0.5,5.2,0.5,7.8c0,4.2-0.4,8.3-1.2,12.2c-0.8,3.8-1.9,7.5-3.3,11
			c-1.5,3.8-3.4,7.5-5.7,10.9l-0.1,0.1l0.8,0.5l0.1-0.1c2.3-3.5,4.2-7.2,5.8-11.1c1.4-3.6,2.6-7.3,3.3-11.2c0.8-4,1.2-8.2,1.2-12.4
			C127.1,60.8,126.9,58.2,126.6,55.6z"/>
		
			<linearGradient id="SVGID_11_" gradientUnits="userSpaceOnUse" x1="-399.6333" y1="136.5047" x2="-398.6334" y2="136.5047" gradientTransform="matrix(7.3982 -4.2536 -4.2536 -7.3982 3642.1714 -665.5661)">
			<stop  offset="0" style="stop-color:#FB0065"/>
			<stop  offset="0.5037" style="stop-color:#F90063"/>
			<stop  offset="0.6861" style="stop-color:#F3025C"/>
			<stop  offset="0.8164" style="stop-color:#E80550"/>
			<stop  offset="0.921" style="stop-color:#D90940"/>
			<stop  offset="1" style="stop-color:#C80E2D"/>
		</linearGradient>
		<path class="st16" d="M95,9.4c0.9,0.5,1.8,1.1,2.7,1.7c3.6,2.4,7,5.1,10.1,8.2c2.9,2.9,5.5,6.1,7.8,9.5c1.7,2.6,3.2,5.3,4.6,8.1
			l0.8-0.4c-1.3-2.8-2.9-5.6-4.6-8.2c-2.3-3.5-5-6.7-7.9-9.6c-3.1-3.1-6.5-5.9-10.2-8.3c-0.9-0.6-1.8-1.1-2.7-1.7L95,9.4z"/>
		
			<linearGradient id="SVGID_12_" gradientUnits="userSpaceOnUse" x1="-459.0339" y1="95.0084" x2="-458.034" y2="95.0084" gradientTransform="matrix(-1.2515 -4.4379 -4.4379 1.2515 -104.4894 -2155.5081)">
			<stop  offset="0" style="stop-color:#FB0065"/>
			<stop  offset="0.5037" style="stop-color:#F90063"/>
			<stop  offset="0.6861" style="stop-color:#F3025C"/>
			<stop  offset="0.8164" style="stop-color:#E80550"/>
			<stop  offset="0.921" style="stop-color:#D90940"/>
			<stop  offset="1" style="stop-color:#C80E2D"/>
		</linearGradient>
		<path class="st17" d="M24.4,14.7c1.4-1.1,2.8-2.2,4.3-3.2c3.2-2.1,6.6-4,10.1-5.5c3.7-1.6,7.7-2.8,11.7-3.7
			c4.2-0.9,8.5-1.3,12.9-1.3c4.2,0,8.3,0.4,12.2,1.2c0.3,0.1,0.6,0.1,0.9,0.2l0.2-0.9c-0.3-0.1-0.6-0.1-0.9-0.2
			C71.9,0.4,67.8,0,63.5,0C59,0,54.7,0.5,50.4,1.4c-4.1,0.9-8.1,2.1-11.9,3.8c-3.6,1.5-7,3.4-10.3,5.6c-1.5,1-3,2.1-4.4,3.2
			L24.4,14.7z"/>
		
			<linearGradient id="SVGID_13_" gradientUnits="userSpaceOnUse" x1="-397.8138" y1="182.4146" x2="-396.8116" y2="182.4146" gradientTransform="matrix(6.2075 5.75 5.75 -6.2075 1432.7035 3436.4873)">
			<stop  offset="0" style="stop-color:#A9A5A6"/>
			<stop  offset="0.2641" style="stop-color:#C9C6C7"/>
			<stop  offset="0.566" style="stop-color:#E6E5E5"/>
			<stop  offset="0.8221" style="stop-color:#F8F8F8"/>
			<stop  offset="1" style="stop-color:#FFFFFF"/>
		</linearGradient>
		<path class="st18" d="M19.3,19.3c1.6-1.6,3.4-3.2,5.2-4.6l-0.6-0.7c-1.8,1.5-3.6,3-5.2,4.7c-3.1,3.1-5.8,6.5-8.2,10.1l0.8,0.5
			C13.5,25.6,16.2,22.3,19.3,19.3z"/>
		<path class="st6" d="M74.4,117.1c0-1.4,1.2-2.6,2.6-2.6c1.4,0,2.6,1.2,2.6,2.6c0,1.4-1.2,2.6-2.6,2.6
			C75.6,119.7,74.4,118.5,74.4,117.1z"/>
		<path class="st6" d="M48.2,10c0-1.4,1.2-2.6,2.6-2.6c1.4,0,2.6,1.2,2.6,2.6c0,1.4-1.2,2.6-2.6,2.6C49.3,12.6,48.2,11.4,48.2,10z"
			/>
		<path class="st6" d="M6.8,53.8c0-1.4,1.2-2.6,2.6-2.6s2.6,1.2,2.6,2.6c0,1.4-1.2,2.6-2.6,2.6S6.8,55.2,6.8,53.8z"/>
		<path class="st6" d="M21.2,101.7c0-1.4,1.2-2.6,2.6-2.6c1.4,0,2.6,1.2,2.6,2.6c0,1.4-1.2,2.6-2.6,2.6
			C22.3,104.3,21.2,103.1,21.2,101.7z"/>
		<path class="st6" d="M114.4,76.2c0-1.4,1.2-2.6,2.6-2.6c1.4,0,2.6,1.2,2.6,2.6c0,1.4-1.2,2.6-2.6,2.6
			C115.5,78.8,114.4,77.6,114.4,76.2z"/>
		<path class="st6" d="M101.6,26.8c0-1.4,1.2-2.6,2.6-2.6c1.4,0,2.6,1.2,2.6,2.6c0,1.4-1.2,2.6-2.6,2.6
			C102.8,29.4,101.6,28.2,101.6,26.8z"/>
		
			<linearGradient id="SVGID_14_" gradientUnits="userSpaceOnUse" x1="-426.7624" y1="162.7581" x2="-425.7624" y2="162.7581" gradientTransform="matrix(57.9976 57.9976 57.9976 -57.9976 15346.0293 34225.1836)">
			<stop  offset="0" style="stop-color:#FC005C"/>
			<stop  offset="0.3338" style="stop-color:#EE0450"/>
			<stop  offset="0.9578" style="stop-color:#CB0D2F"/>
			<stop  offset="1" style="stop-color:#C80E2D"/>
		</linearGradient>
		<path class="st19" d="M97.9,85.9c1.5-2.3,2.7-4.7,3.7-7.2c0.9-2.4,1.7-4.8,2.1-7.2c0.5-2.6,0.8-5.3,0.8-8c0-2.8-0.3-5.7-0.9-8.4
			c-0.5-2.6-1.4-5.2-2.4-7.7c-1-2.3-2.2-4.5-3.6-6.6c-0.3-0.5-0.7-1-1-1.5c-0.1-0.1-0.2-0.3-0.3-0.4c-0.3-0.3-0.5-0.7-0.8-1
			c-0.1-0.2-0.2-0.3-0.4-0.5c-0.3-0.4-0.7-0.8-1.1-1.2L93.9,36c-0.4-0.5-0.9-1-1.4-1.5c-0.5-0.5-1-1-1.5-1.5l0,0l0,0l0,0l-0.1-0.1
			c-0.4-0.4-0.9-0.8-1.3-1.1c-0.2-0.1-0.3-0.3-0.5-0.4c-0.4-0.3-0.7-0.6-1.1-0.8c-0.2-0.1-0.3-0.2-0.5-0.3c-0.5-0.4-1-0.7-1.5-1.1
			c-2.3-1.5-4.7-2.7-7.2-3.7c-2.4-0.9-4.8-1.7-7.2-2.1c-2.6-0.5-5.3-0.8-8-0.8c-2.8,0-5.7,0.3-8.4,0.9c-2.6,0.5-5.2,1.4-7.7,2.4
			c-2.3,1-4.5,2.2-6.6,3.6c-2.2,1.5-4.3,3.2-6.2,5.1c-2,2-3.8,4.3-5.4,6.6c-1.5,2.3-2.7,4.7-3.7,7.2c-0.9,2.4-1.7,4.8-2.1,7.2
			c-0.5,2.6-0.8,5.3-0.8,8c0,2.8,0.3,5.7,0.9,8.4c0.5,2.6,1.4,5.2,2.4,7.7c1,2.3,2.2,4.5,3.6,6.6c0.3,0.5,0.7,1,1,1.5
			c0.1,0.1,0.2,0.3,0.3,0.4c0.3,0.3,0.5,0.7,0.8,1c0.1,0.2,0.2,0.3,0.4,0.5c0.3,0.4,0.7,0.8,1.1,1.2c0.5,0.5,1,1.1,1.5,1.6
			c2,2,4.3,3.8,6.6,5.4c2.3,1.5,4.7,2.7,7.2,3.7c2.4,0.9,4.8,1.7,7.2,2.1c2.6,0.5,5.3,0.8,8,0.8c2.8,0,5.7-0.3,8.4-0.9
			c2.6-0.5,5.2-1.4,7.7-2.4c2.3-1,4.5-2.2,6.6-3.6c2.2-1.5,4.3-3.2,6.2-5.1C94.6,90.5,96.4,88.3,97.9,85.9z M96.9,39.7
			c-0.1-0.1-0.1-0.2-0.2-0.3C96.8,39.5,96.8,39.6,96.9,39.7z M96.1,38.7c-0.2-0.2-0.4-0.5-0.6-0.7C95.7,38.2,95.9,38.4,96.1,38.7z
			 M95.1,37.3c-0.3-0.4-0.7-0.8-1-1.2C94.4,36.5,94.7,36.9,95.1,37.3z M90.8,32.9c-0.4-0.4-0.8-0.7-1.3-1.1
			C90,32.2,90.4,32.6,90.8,32.9z M88.9,31.3c-0.3-0.2-0.5-0.4-0.8-0.6C88.4,30.9,88.7,31.1,88.9,31.3z M87.3,30.1
			c-0.1-0.1-0.2-0.1-0.3-0.2C87.1,30,87.2,30.1,87.3,30.1z M30.1,87.3c0.1,0.1,0.1,0.2,0.2,0.3C30.3,87.5,30.2,87.4,30.1,87.3z
			 M30.9,88.4c0.2,0.2,0.4,0.5,0.6,0.7C31.3,88.9,31.1,88.6,30.9,88.4z M32,89.7c0.3,0.4,0.7,0.8,1,1.2C32.7,90.5,32.3,90.1,32,89.7
			z"/>
		<path class="st2" d="M102.8,55.3c-0.5-2.6-1.4-5.1-2.4-7.5c-1-2.3-2.2-4.4-3.5-6.5c-1.5-2.2-3.1-4.2-5-6.1c-2-2-4.1-3.7-6.5-5.2
			c-2.2-1.4-4.5-2.7-7-3.6c-2.3-0.9-4.6-1.6-7.1-2.1c-0.6-0.1-1.1-0.2-1.7-0.3c-0.2,0-0.4-0.1-0.5-0.1c-0.4-0.1-0.8-0.1-1.3-0.2
			c-0.2,0-0.4,0-0.6-0.1c-0.5-0.1-1.1-0.1-1.6-0.1l-0.2,0c-0.7,0-1.3,0-2,0c-0.7,0-1.4,0-2.1,0.1h0h0h0l-0.2,0
			c-0.6,0-1.1,0.1-1.7,0.1c-0.2,0-0.4,0-0.6,0.1c-0.4,0.1-0.9,0.1-1.3,0.2c-0.2,0-0.4,0.1-0.6,0.1c-0.6,0.1-1.2,0.2-1.8,0.3
			c-2.6,0.5-5.1,1.3-7.5,2.4c-2.3,1-4.4,2.2-6.5,3.5c-2.2,1.5-4.2,3.1-6.1,5c-2,2-3.7,4.1-5.2,6.5c-1.4,2.2-2.7,4.5-3.6,7
			c-0.9,2.3-1.6,4.6-2.1,7.1c-0.5,2.5-0.8,5.2-0.8,7.8c0,2.8,0.3,5.6,0.9,8.3c0.5,2.6,1.3,5.1,2.4,7.5c1,2.3,2.2,4.4,3.5,6.5
			c1.5,2.2,3.1,4.2,5,6.1c2,2,4.1,3.7,6.5,5.2c2.2,1.4,4.5,2.7,7,3.6c2.3,0.9,4.6,1.6,7.1,2.1c0.6,0.1,1.1,0.2,1.7,0.3
			c0.2,0,0.4,0.1,0.5,0.1c0.4,0.1,0.8,0.1,1.3,0.2c0.2,0,0.4,0,0.6,0.1c0.5,0.1,1.1,0.1,1.6,0.1c0.7,0,1.4,0.1,2.2,0.1
			c2.8,0,5.6-0.3,8.3-0.9c2.6-0.5,5.1-1.3,7.5-2.4c2.3-1,4.4-2.2,6.5-3.5c2.2-1.5,4.2-3.1,6.1-5c2-2,3.7-4.1,5.2-6.5
			c1.4-2.2,2.7-4.5,3.6-7c0.9-2.3,1.6-4.6,2.1-7.1c0.5-2.5,0.8-5.2,0.8-7.8C103.7,60.7,103.4,57.9,102.8,55.3z M70.2,24
			c-0.1,0-0.2,0-0.4-0.1C69.9,23.9,70,23.9,70.2,24z M68.9,23.8c-0.3,0-0.6-0.1-0.9-0.1C68.3,23.7,68.6,23.7,68.9,23.8z M67.2,23.6
			c-0.5,0-1-0.1-1.5-0.1C66.2,23.5,66.7,23.5,67.2,23.6z M58.8,23.7c-0.3,0-0.6,0.1-1,0.1C58.2,23.8,58.5,23.7,58.8,23.7z M56.9,24
			c-0.1,0-0.2,0-0.4,0.1C56.7,24,56.8,24,56.9,24z M56.9,103.1c0.1,0,0.2,0,0.4,0.1C57.1,103.1,57,103.1,56.9,103.1z M58.2,103.3
			c0.3,0,0.6,0.1,0.9,0.1C58.8,103.4,58.5,103.3,58.2,103.3z M59.8,103.5c0.5,0,1,0.1,1.5,0.1C60.8,103.6,60.3,103.5,59.8,103.5z"/>
	</g>
</g>
</svg>
